<?xml version="1.0" encoding="UTF-8"?>
<!DOCTYPE svg PUBLIC "-//W3C//DTD SVG 1.1//EN" "http://www.w3.org/Graphics/SVG/1.1/DTD/svg11.dtd">
<!-- Creator: CorelDRAW 2021 (64-Bit) -->
<svg xmlns="http://www.w3.org/2000/svg" xml:space="preserve" width="511px" height="512px" version="1.1" style="shape-rendering:geometricPrecision; text-rendering:geometricPrecision; image-rendering:optimizeQuality; fill-rule:evenodd; clip-rule:evenodd"
viewBox="0 0 202.84 203.24"
 xmlns:xlink="http://www.w3.org/1999/xlink"
 xmlns:xodm="http://www.corel.com/coreldraw/odm/2003">
 <defs>
  <style type="text/css">
   <![CDATA[
    .fil0 {fill:#FBA251}
   ]]>
  </style>
 </defs>
 <g id="Capa_x0020_1">
  <metadata id="CorelCorpID_0Corel-Layer"/>
  <path class="fil0" d="M106.13 203.24l6.86 0c6.18,-3.14 6.09,-0.31 14.48,-8.68l34.93 -34.93c3.93,-3.93 7.6,-7.56 11.52,-11.51 2.45,-2.46 10.04,-9.7 11.54,-11.88 4.06,-5.87 1.77,-12.99 -2.32,-16.12 -5.1,-3.93 -13.35,-2.73 -20.79,-2.73 -15.48,0 -30.96,0 -46.44,0 -6.5,0 -15.97,0.96 -21.3,-1.61 -4.64,-2.24 -8.93,-7.23 -9.18,-14.16 -0.71,-20.19 -0.02,-47.89 -0.01,-69.47 0,-5.94 0.16,-13.11 -7.63,-15.86 -8,-2.82 -12.81,3.2 -15.9,6.31 -3.98,4.01 -7.7,7.71 -11.71,11.7 -5.07,5.06 -42.67,41.95 -46.16,46.73 -3.27,4.47 -5.13,11.57 -3.3,18.23 1.93,6.99 5.91,10.29 9.54,13.92 15.57,15.58 30.78,30.98 46.47,46.42l34.74 34.73c8.95,8.97 8.85,5.7 14.66,8.91zm96.71 -115.73l0 -79.98c-1.74,-2.86 -1.45,-4.53 -4.82,-6.29l-2.19 -1.07c-0.04,-0.13 -0.18,-0.11 -0.27,-0.17l-80.53 0c-3.21,1.89 -5.22,1.89 -6.86,5.78 -1.24,2.97 -0.74,8.62 -0.74,12.08l0 51.61c0,16.54 -2.82,25.95 12.84,25.91l64.7 0c13.12,0 13.44,0.81 17.87,-7.87z"/>
 </g>
</svg>
