<?xml version="1.0" encoding="UTF-8" standalone="no"?>
<!-- Created with Inkscape (http://www.inkscape.org/) -->

<svg
   width="154.32129mm"
   height="154.32159mm"
   viewBox="0 0 154.32129 154.32159"
   version="1.1"
   id="svg5"
   xml:space="preserve"
   sodipodi:docname="logo.svg"
   inkscape:version="1.2.2 (b0a8486541, 2022-12-01)"
   xmlns:inkscape="http://www.inkscape.org/namespaces/inkscape"
   xmlns:sodipodi="http://sodipodi.sourceforge.net/DTD/sodipodi-0.dtd"
   xmlns:xlink="http://www.w3.org/1999/xlink"
   xmlns="http://www.w3.org/2000/svg"
   xmlns:svg="http://www.w3.org/2000/svg"><sodipodi:namedview
     id="namedview7"
     pagecolor="#ffffff"
     bordercolor="#000000"
     borderopacity="0.25"
     inkscape:showpageshadow="2"
     inkscape:pageopacity="0.0"
     inkscape:pagecheckerboard="0"
     inkscape:deskcolor="#d1d1d1"
     inkscape:document-units="mm"
     showgrid="false"
     inkscape:zoom="1.4247439"
     inkscape:cx="291.28042"
     inkscape:cy="291.63136"
     inkscape:window-width="1920"
     inkscape:window-height="1011"
     inkscape:window-x="0"
     inkscape:window-y="0"
     inkscape:window-maximized="1"
     inkscape:current-layer="g192" /><defs
     id="defs2"><linearGradient
       id="grad1"><stop
         offset="0%"
         stop-color="#33cc33"
         stop-opacity="1.0000"
         id="stop132" /><stop
         offset="100%"
         stop-color="#66ffcc"
         stop-opacity="1.0000"
         id="stop134" /></linearGradient><linearGradient
       xlink:href="#grad1"
       id="grad2"
       x1="15507.283"
       y1="-2513.3586"
       x2="15507.283"
       y2="-2075.9072"
       gradientUnits="userSpaceOnUse" /></defs><g
     inkscape:label="Capa 1"
     inkscape:groupmode="layer"
     id="layer1"
     transform="translate(-939.23037,828.72184)"><g
       id="g192"
       transform="matrix(0.35277413,0,0,0.35277413,-4531.334,57.926672)"><path
         d="m 15944.723,-2461.9509 v 334.5773 c 0,28.3776 -22.948,51.4649 -51.465,51.4649 h -51.465 v -102.9298 -64.3309 h -86.073 l -20.827,-102.9299 h 106.9 v -64.3312 h -119.918 l -20.827,-102.9296 192.21,10e-5 c -0.105,-10e-5 -0.05,-3e-4 0,-3e-4 28.423,0 51.465,23.0416 51.465,51.4094 z m -437.451,334.5773 v -334.5218 c 0,-28.4233 22.884,-51.4646 51.307,-51.4646 l 103.087,-3e-4 20.828,102.9298 h -72.293 v 64.3312 h 85.31 l 20.828,102.9299 h -106.138 v 64.3309 h 119.155 l 20.827,102.9298 h -191.446 c -28.424,0 -51.465,-23.0416 -51.465,-51.4649 z"
         style="fill:#adff2f;fill-opacity:1"
         id="path140" /></g></g></svg>
