<?xml version="1.0" encoding="UTF-8"?>
<!DOCTYPE svg PUBLIC "-//W3C//DTD SVG 1.1//EN" "http://www.w3.org/Graphics/SVG/1.1/DTD/svg11.dtd">
<!-- Creator: CorelDRAW 2021 (64-Bit) -->
<svg xmlns="http://www.w3.org/2000/svg" xml:space="preserve" width="237px" height="236px" version="1.1" style="shape-rendering:geometricPrecision; text-rendering:geometricPrecision; image-rendering:optimizeQuality; fill-rule:evenodd; clip-rule:evenodd"
viewBox="0 0 619.2 617.58"
 xmlns:xlink="http://www.w3.org/1999/xlink"
 xmlns:xodm="http://www.corel.com/coreldraw/odm/2003">
 <defs>
  <style type="text/css">
   <![CDATA[
    .fil0 {fill:#8E65A1}
    .fil4 {fill:#A690B7}
    .fil5 {fill:#DF9289}
    .fil1 {fill:#E4AF93}
    .fil2 {fill:#ECCD9D}
    .fil3 {fill:#FEFEFE}
   ]]>
  </style>
 </defs>
 <g id="Capa_x0020_1">
  <metadata id="CorelCorpID_0Corel-Layer"/>
  <path class="fil0" d="M229.87 575.1c61.89,20.22 105.99,30.3 175.05,11.31 159.86,-43.96 240.18,-226.93 159.17,-375.69 -168.39,-278.13 -560.13,-89.65 -482.63,193.82 19.24,70.37 85.52,150.93 148.41,170.56z"/>
  <path class="fil1" d="M218.63 159.71l2.55 14.5c-9.78,8.21 -17.48,10.55 -35.23,12.06 -22.85,31.57 -53.11,60.49 -64.27,115.47 11.85,5.61 12.31,7.76 10.49,25.17 -1.52,14.57 -4.66,17.13 -18.6,15.9 -2.97,58.87 10.04,88.63 9.19,97.18 -0.07,0.79 -0.59,2.11 -0.7,2.74 -0.12,0.66 -0.97,3.21 -1.09,2.71 -0.11,-0.52 -0.49,2.09 -1.28,2.7 10.3,22.66 81.4,103.75 102.18,93.44 6.8,-6.1 -34.35,-64.99 15.78,-73.29 46.26,-7.67 48.37,51.83 71.92,33.88 2.81,-3.06 8.32,2.19 2.17,-13.43 -6.56,-16.63 -18.04,-5.12 -21.28,-52.57 -43.71,-16.21 -88.1,-87.08 -55.9,-147l18.14 1.26c3.68,-5.6 5.44,-8.23 9.45,-12.45 -30.64,-0.88 -3.94,-36.84 19.53,-34.53l3.75 11.82c7.35,-3.74 14.4,-5.34 22.51,-8.93l-14.77 -2.58c-0.14,-24.08 14.75,-21.64 39.02,-21.63 46.88,0 87.42,20.86 107.52,64.21 52.56,4.5 41.74,18.79 61.58,17.1 22.13,-1.89 -11.23,3.56 6.09,-1.48l5.71 -2.77c14.42,-28.6 -35.85,-24.83 -41.75,-58.16 -8.81,-49.79 58.42,-27.09 65.99,-27.43 -2.71,-27.88 -69.95,-84.16 -98.59,-95.38l-13.8 2.56c-1.23,-0.08 -12.72,-2.7 -14.83,-3.12 -76.62,-15.13 -130.61,7.53 -191.48,42.05z"/>
  <path class="fil2" d="M495.07 231.48c-3.12,27.81 62.07,30.99 39.6,75.18 -21.11,41.5 -65.45,1.39 -86.28,2.05 5.55,53.43 -2.14,76.54 -31.44,106.31 -31.77,32.28 -54.36,30.99 -103.63,30.63 -1.61,19.9 12.01,22.19 18.79,36.66 7.74,16.54 2.4,36.4 -13.26,42.76 -48.82,19.83 -48.11,-47.01 -81.5,-32.46 -7.6,14.94 -1.18,18 4.99,29.9 7.08,13.62 3.12,23.69 2.18,36.16 168,51.73 299.05,-42.42 325.98,-176.81 9.12,-45.48 3.33,-114.46 -19.5,-149.14 -42.7,2.99 -43.47,-5.34 -55.93,-1.24z"/>
  <path class="fil3" d="M285.43 255.27l-23.28 22.71c-4.01,4.22 -5.77,6.85 -9.45,12.45 -3.1,26.88 -10.29,39.26 -1.93,68.38 20.21,70.36 102.35,82.14 146.56,43.68 69.57,-60.53 22.32,-171.27 -89.39,-156.15 -8.11,3.59 -15.16,5.19 -22.51,8.93z"/>
  <path class="fil2" d="M229.87 575.1c6.29,8.42 4,6.37 14.82,12.3l61.8 23.34c157.64,36.46 305.99,-77.47 312.5,-230.88 2.62,-61.84 -19.7,-139.96 -54.9,-169.14 81.01,148.76 0.69,331.73 -159.17,375.69 -69.06,18.99 -113.16,8.91 -175.05,-11.31z"/>
  <path class="fil3" d="M119.69 448.14c0.79,-0.61 1.17,-3.22 1.28,-2.7 0.12,0.5 0.97,-2.05 1.09,-2.71 0.11,-0.63 0.63,-1.95 0.7,-2.74 0.85,-8.55 -12.16,-38.31 -9.19,-97.18 -6.09,-11.41 -8.28,-34.81 8.11,-41.07 11.16,-54.98 41.42,-83.9 64.27,-115.47 -17.46,-21.49 11.32,-26.2 32.68,-26.56 60.87,-34.52 114.86,-57.18 191.48,-42.05 2.11,0.42 13.6,3.04 14.83,3.12l13.8 -2.56c-57.1,-16.88 -87.49,-32.43 -158.39,-16.56 -90.9,20.34 -164.74,94.49 -182.36,186.04 -14.04,72.95 1.89,101.48 21.7,160.44z"/>
  <path class="fil4" d="M548.03 87.24c-50.79,37.46 -7.01,61.95 14.71,17.79 7.82,-15.89 -1.59,-27.47 -14.71,-17.79z"/>
  <path class="fil4" d="M105.71 89.39c-11.79,11.87 3.82,20.05 10.99,25.87 5.24,4.24 18.33,19.16 28.13,9.71 15.29,-14.72 -27.73,-47.05 -39.12,-35.58z"/>
  <path class="fil4" d="M8.76 306.08c-31.64,21.11 31.85,25.64 42.46,18.19 23.55,-16.56 -26.41,-28.9 -42.46,-18.19z"/>
  <path class="fil4" d="M325.84 50.64l16.8 1.45c3.96,-10.47 12.54,-51.1 -7.04,-52.07 -18.24,-0.9 -14.86,38.49 -9.76,50.62z"/>
  <path class="fil4" d="M110.99 518.12c-34.18,26.76 -23.23,52.93 -2.57,36.91 1.7,-1.32 19.24,-22.09 19.83,-23.39 5.71,-12.77 -3.39,-24.38 -17.26,-13.52z"/>
  <path class="fil4" d="M405.35 213.24c-14.42,18.08 29.17,21.32 36.62,14.43 18.77,-17.35 -26.84,-26.68 -36.62,-14.43z"/>
  <path class="fil5" d="M186.72 417.91c-1.68,5.68 -4.33,17.38 -3.86,25.62 0.89,15.83 3.82,15.32 18.77,13.42 4.1,-11.16 8.37,-53.33 -14.91,-39.04z"/>
  <path class="fil4" d="M113.57 342.81c13.94,1.23 17.08,-1.33 18.6,-15.9 1.82,-17.41 1.36,-19.56 -10.49,-25.17 -16.39,6.26 -14.2,29.66 -8.11,41.07z"/>
  <path class="fil4" d="M185.95 186.27c17.75,-1.51 25.45,-3.85 35.23,-12.06l-2.55 -14.5c-21.36,0.36 -50.14,5.07 -32.68,26.56z"/>
  <path class="fil5" d="M203.01 243.97c-13.12,-8.81 -51.87,-10.7 -38.85,10.18 2.99,4.78 42.05,18.22 38.85,-10.18z"/>
  <path class="fil4" d="M355.87 141.71c-25.86,13.83 -24.34,38.44 -4.96,31.17 3.04,-1.13 18.13,-13.9 19.49,-17.24 5.68,-14.03 -4.61,-19.23 -14.53,-13.93z"/>
  <path class="fil5" d="M262.46 182.55c-0.9,0.87 -8.3,-1.67 -2.81,11.6 1.11,2.67 6.42,6.65 9.44,8.66 6.12,4.07 16.9,12.26 24.56,4.26 11.64,-12.16 -20.8,-34.43 -31.19,-24.52z"/>
  <path class="fil5" d="M421.75 175.99c5.2,-12.31 8.42,-28.2 -1.32,-40.78 -13.3,0.9 -15.81,4.88 -16.72,18.68 -1.18,18.03 0.69,21.17 18.04,22.1z"/>
  <path class="fil4" d="M176.77 312.8c-3.73,13.73 8.21,44.18 22.72,36.34 10.05,-5.43 5.16,-15.53 0.23,-24.13 -5.76,-10.07 -8.44,-14.38 -22.95,-12.21z"/>
  <path class="fil0" d="M262.15 277.98l23.28 -22.71 -3.75 -11.82c-23.47,-2.31 -50.17,33.65 -19.53,34.53z"/>
 </g>
</svg>
